<?xml version="1.0" encoding="UTF-8"?>
<svg version="1.1" xmlns="http://www.w3.org/2000/svg" width="811" height="620">
<path d="M0 0 C1.04314362 -0.00563965 2.08628723 -0.0112793 3.16104126 -0.01708984 C4.30503387 -0.01304138 5.44902649 -0.00899292 6.62768555 -0.00482178 C7.8327475 -0.00832642 9.03780945 -0.01183105 10.27938843 -0.01544189 C13.58517984 -0.02274322 16.89072138 -0.02102181 20.19649887 -0.01468372 C23.65444019 -0.00962365 27.11237076 -0.0143152 30.5703125 -0.01745605 C36.37754231 -0.02109568 42.18472127 -0.01629671 47.99194336 -0.0067749 C54.70789191 0.00410967 61.42371904 0.00058409 68.13966465 -0.01042771 C73.90364147 -0.01950071 79.66758172 -0.02078581 85.43156338 -0.01555037 C88.87510099 -0.01243073 92.31858152 -0.01202115 95.76211548 -0.01862335 C99.6001661 -0.02546781 103.43808047 -0.01598382 107.27612305 -0.00482178 C108.99211197 -0.01089447 108.99211197 -0.01089447 110.74276733 -0.01708984 C111.78591095 -0.0114502 112.82905457 -0.00581055 113.90380859 0 C115.2654438 0.00113108 115.2654438 0.00113108 116.65458679 0.002285 C118.9519043 0.25396729 118.9519043 0.25396729 121.9519043 2.25396729 C122.23107632 5.07953233 122.32385282 7.68302588 122.2800293 10.50787354 C122.27815613 11.32392563 122.27628296 12.13997772 122.27435303 12.98075867 C122.26762651 14.70655398 122.25370009 16.4323339 122.2331543 18.15802002 C122.20198871 20.80928603 122.19218394 23.45995813 122.1862793 26.11138916 C122.17711006 27.78522458 122.16673455 29.45905393 122.1550293 31.13287354 C122.15077942 31.93076797 122.14652954 32.72866241 122.14215088 33.55073547 C122.06905662 39.13681496 122.06905662 39.13681496 120.9519043 40.25396729 C119.60206682 40.37581872 118.24615728 40.43163559 116.89111328 40.45928955 C116.03029648 40.47923477 115.16947968 40.49917999 114.28257751 40.51972961 C113.34716629 40.53644211 112.41175507 40.5531546 111.44799805 40.57037354 C110.49498306 40.59115463 109.54196808 40.61193573 108.56007385 40.63334656 C105.50326019 40.69894906 102.44635773 40.75777646 99.3894043 40.81646729 C97.32233767 40.85964234 95.25528016 40.90325629 93.18823242 40.94732666 C88.10954834 41.0546413 83.0307746 41.15587819 77.9519043 41.25396729 C76.64217813 47.20915489 76.84117576 53.117124 76.88598633 59.17852783 C76.89065918 60.37427429 76.89533203 61.57002075 76.90014648 62.80200195 C76.91336522 66.06829859 76.93086125 69.33454449 76.94930506 72.60081458 C76.96677067 76.02268381 76.97611987 79.44457106 76.98556519 82.86647034 C77.01894505 94.51303351 77.06075434 106.15952363 77.12329102 117.80596924 C77.15778593 124.24552641 77.18161103 130.68503066 77.19349945 137.12467033 C77.20027461 140.5302409 77.21274937 143.93558614 77.23852921 147.34107018 C77.26488358 151.13334304 77.27288994 154.92523758 77.27661133 158.71759033 C77.2889682 159.84751907 77.30132507 160.97744781 77.3140564 162.14161682 C77.31137756 163.1720108 77.30869873 164.20240479 77.30593872 165.26402283 C77.31000292 166.16050883 77.31406712 167.05699484 77.31825447 167.98064709 C76.9519043 170.25396729 76.9519043 170.25396729 75.64988518 172.04356098 C72.77785791 174.09088669 69.46775683 173.63844217 66.07299805 173.58209229 C64.92118797 173.57928253 64.92118797 173.57928253 63.74610901 173.57641602 C62.12464041 173.56969909 60.50318792 173.55579159 58.88183594 173.53521729 C56.39527386 173.50404088 53.90934564 173.49424377 51.42260742 173.48834229 C49.84772987 173.47917293 48.27285879 173.46879737 46.69799805 173.45709229 C45.95214951 173.45284241 45.20630096 173.44859253 44.43785095 173.44421387 C39.18634255 173.37118641 39.18634255 173.37118641 36.9519043 172.25396729 C36.94767236 171.58490388 36.94344042 170.91584047 36.93908024 170.22650242 C36.83591292 153.96965813 36.72729636 137.7128604 36.61256504 121.45609379 C36.55721487 113.59454417 36.50372999 105.73299002 36.45458984 97.87139893 C36.41176991 91.02168406 36.36549755 84.17200287 36.31502575 77.32233995 C36.28840708 73.69329311 36.26355366 70.06425301 36.24283028 66.43516731 C36.2196688 62.39042306 36.18880172 58.34577374 36.15722656 54.30108643 C36.1514711 53.08908569 36.14571564 51.87708496 36.13978577 50.62835693 C36.12999695 49.53314224 36.12020813 48.43792755 36.11012268 47.30952454 C36.10367013 46.35178163 36.09721758 45.39403872 36.0905695 44.40727329 C36.19105247 42.27304741 36.19105247 42.27304741 34.9519043 41.25396729 C31.85105208 41.09355536 28.77002851 40.99433326 25.66674805 40.93756104 C24.73592911 40.91677994 23.80511017 40.89599884 22.84608459 40.87458801 C19.86060247 40.80898798 16.87502946 40.75015927 13.8894043 40.69146729 C11.87051453 40.64829199 9.8516341 40.60467803 7.83276367 40.56060791 C2.87257133 40.45329599 -2.08771279 40.35205841 -7.0480957 40.25396729 C-8.6241918 37.1017751 -8.23213331 33.71611254 -8.2512207 30.25396729 C-8.25692078 29.46248291 -8.26262085 28.67099854 -8.26849365 27.85552979 C-8.27794388 26.18106423 -8.28447773 24.50658008 -8.28833008 22.83209229 C-8.29805748 20.26405722 -8.32908837 17.69681516 -8.3605957 15.12896729 C-8.36712356 13.50397205 -8.37237488 11.87897108 -8.3762207 10.25396729 C-8.3885675 9.48310791 -8.40091431 8.71224854 -8.41363525 7.91802979 C-8.40454102 5.75396729 -8.40454102 5.75396729 -8.0480957 2.25396729 C-4.76222187 0.06338473 -3.81040851 0.00316521 0 0 Z " fill="#FFFFFF" transform="translate(351.048095703125,221.74603271484375)"/>
<path d="M0 0 C1.15835696 -0.00596161 1.15835696 -0.00596161 2.34011507 -0.01204365 C4.93587258 -0.02169224 7.53108856 -0.00983331 10.12683105 0.00190735 C11.98445337 -0.00051977 13.84207438 -0.00423832 15.69969177 -0.00915527 C20.75127679 -0.01857878 25.80266855 -0.00912657 30.85423851 0.00417686 C36.13394585 0.01547308 41.41364342 0.01138526 46.69335938 0.00942993 C55.56070116 0.00854638 64.42796658 0.01964021 73.29528809 0.03804016 C83.55577901 0.05920871 93.81615802 0.06271802 104.07666636 0.0564782 C113.93580513 0.05078881 123.79490439 0.05642519 133.65403748 0.06765175 C137.85494211 0.07230337 142.05582261 0.07316915 146.25672913 0.0710659 C151.20117862 0.06918596 156.14551378 0.07726423 161.08993721 0.0931263 C162.90763946 0.09737855 164.72535329 0.09821341 166.5430584 0.0954361 C169.01833414 0.09222714 171.49326553 0.10126343 173.96850586 0.11352539 C174.6931102 0.10974607 175.41771455 0.10596674 176.1642766 0.10207289 C179.8313006 0.13435559 181.34446086 0.28102709 184.48425293 2.3742218 C184.85847473 4.27168274 184.85847473 4.27168274 184.85656738 6.6085968 C184.86279617 7.48290344 184.86902496 8.35721008 184.8754425 9.25801086 C184.86162788 10.67678528 184.86162788 10.67678528 184.84753418 12.1242218 C184.84828194 13.5778009 184.84828194 13.5778009 184.8490448 15.06074524 C184.84670177 17.11187284 184.83695987 19.16300318 184.82043457 21.21406555 C184.79684855 24.3614613 184.79987107 27.50801021 184.80651855 30.6554718 C184.80094186 32.64506021 184.79383204 34.63464503 184.78503418 36.6242218 C184.78594559 37.57007141 184.78685699 38.51592102 184.78779602 39.49043274 C184.77826401 40.36473938 184.76873199 41.23904602 184.75891113 42.1398468 C184.75430374 42.91102844 184.74969635 43.68221008 184.74494934 44.47676086 C184.48425293 46.3742218 184.48425293 46.3742218 182.48425293 48.3742218 C179.95560573 48.57384755 177.53611266 48.64791002 175.00610352 48.63491821 C174.2258473 48.63874376 173.44559108 48.64256931 172.64169073 48.64651078 C170.01297213 48.65687441 167.38447057 48.65284233 164.7557373 48.64888 C162.8769358 48.65322459 160.99813606 48.65840689 159.11933899 48.66436768 C154.00582999 48.67779535 148.89239473 48.67833223 143.77887154 48.67580438 C139.51661565 48.67473734 135.25437484 48.67961109 130.99212217 48.6844098 C120.94114785 48.69551775 110.8902109 48.69593498 100.8392334 48.68989563 C90.45432197 48.68385181 80.0695459 48.69617428 69.68465757 48.7174657 C60.78189079 48.73505039 51.87916721 48.74108807 42.97638369 48.73782796 C37.65321965 48.73601014 32.33015217 48.73870079 27.00700378 48.7525425 C22.00344982 48.76506561 17.00010774 48.76322939 11.99655724 48.75013161 C10.15585447 48.74775428 8.31513704 48.75054152 6.47445107 48.75875473 C3.97018458 48.76912671 1.46664179 48.7611995 -1.03759766 48.7484436 C-2.14156946 48.75950503 -2.14156946 48.75950503 -3.26784372 48.77078992 C-5.29232025 48.74895191 -5.29232025 48.74895191 -8.51574707 48.3742218 C-10.55669961 45.31279299 -10.76863654 44.67680684 -10.79040527 41.2257843 C-10.79993729 40.39482239 -10.8094693 39.56386047 -10.81929016 38.7077179 C-10.81837875 37.81391418 -10.81746735 36.92011047 -10.81652832 35.9992218 C-10.82081345 35.07834778 -10.82509857 34.15747375 -10.82951355 33.20869446 C-10.83525596 31.26192548 -10.83575777 29.31513504 -10.8314209 27.36836243 C-10.8282591 24.38556973 -10.85172742 21.40376697 -10.8770752 18.4210968 C-10.87934796 16.53047306 -10.88005179 14.63984664 -10.87902832 12.7492218 C-10.88823807 11.85541809 -10.89744781 10.96161438 -10.90693665 10.04072571 C-10.90070786 9.20976379 -10.89447906 8.37880188 -10.88806152 7.5226593 C-10.88869095 6.79224426 -10.88932037 6.06182922 -10.88996887 5.3092804 C-9.76920904 -0.48604187 -4.91560035 -0.05002597 0 0 Z " fill="#BCBEC0" transform="translate(502.5157470703125,349.6257781982422)"/>
<path d="M0 0 C2.81354442 -0.30407393 5.40323454 -0.42000562 8.21875 -0.3984375 C9.03243042 -0.40130768 9.84611084 -0.40417786 10.68444824 -0.40713501 C12.40601293 -0.40917791 14.12760071 -0.40363226 15.84912109 -0.39111328 C18.48978394 -0.3750621 21.12891621 -0.39095357 23.76953125 -0.41015625 C25.44010756 -0.40817386 27.11068291 -0.40433026 28.78125 -0.3984375 C29.97034973 -0.40754654 29.97034973 -0.40754654 31.18347168 -0.4168396 C33.40820312 -0.38818359 33.40820312 -0.38818359 37 0 C39.41471927 3.6220789 39.2554694 5.28583292 39.26742554 9.59788513 C39.27195665 10.27141228 39.27648776 10.94493943 39.28115618 11.6388765 C39.29383787 13.90051499 39.29217743 16.16191383 39.29052734 18.42358398 C39.29651021 20.04313467 39.30331519 21.6626825 39.31088257 23.28222656 C39.32857333 27.68508484 39.33323921 32.08786542 39.33451414 36.4907558 C39.3364116 40.16385283 39.34376727 43.8369317 39.35085833 47.51002175 C39.36715118 56.17408959 39.37202642 64.83811586 39.37060547 73.50219727 C39.36940343 82.44602719 39.3905156 91.38961603 39.4220928 100.33338493 C39.44822336 108.00734134 39.45897414 115.68121885 39.45769465 123.35521942 C39.45718411 127.9407152 39.46291774 132.52599674 39.48405075 137.11144829 C39.50337935 141.42317101 39.50359477 145.73447394 39.48901749 150.04621124 C39.48692165 151.62968367 39.49167626 153.21318201 39.5037384 154.79660988 C39.51912856 156.95661408 39.50992638 159.11515945 39.49447632 161.27513123 C39.49556585 162.48431434 39.49665539 163.69349745 39.49777794 164.93932247 C38.89894242 168.62137078 37.9718667 169.80525365 35 172 C32.3673606 172.39842915 30.15987832 172.56215695 27.53125 172.53125 C26.813927 172.5350769 26.096604 172.53890381 25.35754395 172.54284668 C23.84463086 172.54556227 22.33167055 172.53822555 20.81884766 172.52148438 C18.50707024 172.50006551 16.19839987 172.52129351 13.88671875 172.546875 C12.41405566 172.54423166 10.9413945 172.53910653 9.46875 172.53125 C8.78010864 172.53934692 8.09146729 172.54744385 7.38195801 172.55578613 C4.25849172 172.49496084 2.35701499 172.26365831 -0.18284035 170.38795567 C-2.60477663 167.20525433 -2.49806165 165.2541843 -2.49447632 161.27513123 C-2.49930515 160.60004408 -2.50413398 159.92495694 -2.50910914 159.22941262 C-2.5203774 156.9682214 -2.50306463 154.70816184 -2.48583984 152.44702148 C-2.48798578 150.82570082 -2.49186358 149.20438166 -2.49734497 147.58306885 C-2.50704284 143.18020074 -2.49173019 138.77773781 -2.47143888 134.3749187 C-2.45388065 129.77054471 -2.45739271 125.16618348 -2.4581604 120.56178284 C-2.45628708 112.8302634 -2.4389181 105.09890092 -2.41162109 97.36743164 C-2.38015885 88.42305344 -2.36962527 79.47884711 -2.3710922 70.53441757 C-2.37231205 61.93589033 -2.36210838 53.33741917 -2.34550858 44.73890877 C-2.33843969 41.07668686 -2.33478162 37.41448479 -2.33372116 33.75225639 C-2.33171497 29.44223597 -2.31952738 25.13236035 -2.29938889 20.8223877 C-2.2935378 19.23850961 -2.29108837 17.65461486 -2.29224396 16.07072639 C-2.29322266 13.91295774 -2.28194141 11.75559705 -2.26742554 9.59788513 C-2.26407385 8.38907905 -2.26072216 7.18027296 -2.25726891 5.93483639 C-2 3 -2 3 0 0 Z " fill="#FFFFFF" transform="translate(125,223)"/>
<path d="M0 0 C1.03472946 -0.00419449 2.06945892 -0.00838898 3.13554382 -0.01271057 C4.2701857 -0.00709106 5.40482758 -0.00147156 6.57385254 0.00431824 C7.76916092 0.00241989 8.9644693 0.00052155 10.19599915 -0.00143433 C13.47490543 -0.00450708 16.75364606 0.00137362 20.03253365 0.01151872 C23.46244274 0.02029914 26.89234758 0.01854177 30.32226562 0.01815796 C36.08242063 0.01909465 41.84252296 0.02777913 47.60266113 0.04142761 C54.26405014 0.05715318 60.92538147 0.06242571 67.5867877 0.06169206 C73.99242167 0.06108183 80.39803684 0.06618682 86.80366516 0.07448387 C89.53087002 0.07801602 92.25806823 0.07984702 94.98527527 0.08037758 C98.79217444 0.0825386 102.59900029 0.0912778 106.40588379 0.10197449 C107.54052567 0.1015213 108.67516754 0.10106812 109.8441925 0.1006012 C110.87892197 0.10486618 111.91365143 0.10913116 112.97973633 0.11352539 C114.33031002 0.11603916 114.33031002 0.11603916 115.70816803 0.11860371 C117.98986816 0.24723816 117.98986816 0.24723816 120.98986816 1.24723816 C121.15775879 6.15832441 121.31828887 11.06957578 121.4720459 15.98112488 C121.52536755 17.65143788 121.58068897 19.3216883 121.63806152 20.99186707 C121.72024769 23.39456187 121.7952054 25.79739096 121.86877441 28.20036316 C121.90932701 29.31776886 121.90932701 29.31776886 121.95069885 30.45774841 C122.15647217 37.62965248 122.15647217 37.62965248 120.98986816 40.24723816 C118.01961106 41.23732386 116.07865628 41.37518304 112.97973633 41.38095093 C111.94500687 41.38521591 110.9102774 41.3894809 109.8441925 41.39387512 C108.14222969 41.39319534 108.14222969 41.39319534 106.40588379 41.39250183 C105.21057541 41.39586044 104.01526703 41.39921906 102.78373718 41.40267944 C99.50488247 41.41055818 96.22606574 41.41385735 92.94720268 41.41449523 C90.21098571 41.41544463 87.47477483 41.41912318 84.7385602 41.42266732 C78.28472873 41.43080992 71.83091121 41.43325168 65.3770752 41.43254089 C58.71566589 41.43193968 52.05433746 41.44250059 45.39294863 41.45828456 C39.67568724 41.47134956 33.95845233 41.47672525 28.24117613 41.47608548 C24.82557552 41.47583025 21.41004682 41.47869548 17.99446106 41.48926353 C14.18752242 41.49901643 10.38079428 41.49620413 6.57385254 41.49015808 C5.43921066 41.49577759 4.30456879 41.50139709 3.13554382 41.50718689 C1.58344963 41.50089516 1.58344963 41.50089516 0 41.49447632 C-1.35057369 41.49529347 -1.35057369 41.49529347 -2.7284317 41.49612713 C-5.01013184 41.24723816 -5.01013184 41.24723816 -8.01013184 39.24723816 C-8.31420576 36.43369374 -8.43013745 33.84400362 -8.40856934 31.02848816 C-8.41143951 30.21480774 -8.41430969 29.40112732 -8.41726685 28.56278992 C-8.41930974 26.84122523 -8.4137641 25.11963745 -8.40124512 23.39811707 C-8.38519393 20.75745422 -8.4010854 18.11832195 -8.42028809 15.47770691 C-8.41830569 13.8071306 -8.4144621 12.13655525 -8.40856934 10.46598816 C-8.41464203 9.673255 -8.42071472 8.88052185 -8.42697144 8.06376648 C-8.39831543 5.83903503 -8.39831543 5.83903503 -8.01013184 2.24723816 C-4.73082077 0.06103078 -3.79877389 -0.00229841 0 0 Z " fill="#FFFFFF" transform="translate(201.0101318359375,287.7527618408203)"/>
<path d="M0 0 C0.92602492 0.00054477 1.85204985 0.00108953 2.80613613 0.00165081 C3.86762371 -0.00254368 4.92911129 -0.00673817 6.02276516 -0.01105976 C7.19219662 -0.00544025 8.36162807 0.00017925 9.56649685 0.00596905 C11.40795033 0.00312153 11.40795033 0.00312153 13.28660488 0.00021648 C16.65843776 -0.00285953 20.03002685 0.00303175 23.40183091 0.01316953 C26.92477127 0.0219374 30.44770735 0.02019284 33.97065639 0.01980877 C39.88641481 0.02074588 45.80212199 0.02943681 51.71786404 0.04307842 C58.56615585 0.0588117 65.41439156 0.06407631 72.26270014 0.06334287 C78.84080001 0.06273342 85.41888153 0.06783083 91.9969759 0.07613468 C94.8011931 0.07967339 97.60540382 0.08149877 100.40962315 0.08202839 C104.32000764 0.08321554 108.23034503 0.09291187 112.1407156 0.1036253 C113.31217129 0.10317211 114.48362698 0.10271893 115.69058132 0.10225201 C117.27858295 0.10864948 117.27858295 0.10864948 118.89866543 0.1151762 C120.28713727 0.11768997 120.28713727 0.11768997 121.70365906 0.12025452 C123.78890896 0.24888897 123.78890896 0.24888897 124.78890896 1.24888897 C124.97378942 3.7936134 125.09729122 6.31348019 125.17562771 8.86217022 C125.21391438 10.01111012 125.21391438 10.01111012 125.25297451 11.18326092 C125.30508143 12.80816398 125.3544963 14.43315523 125.40145779 16.05821514 C125.47579556 18.5409029 125.56652178 21.02264273 125.65804958 23.50474834 C125.70658737 25.0821915 125.75414511 26.65966517 125.80062771 28.23717022 C125.829687 28.9789703 125.8587463 29.72077038 125.88868618 30.48504925 C126.05354972 37.26865714 126.05354972 37.26865714 123.78890896 40.24888897 C120.83664734 41.23297618 118.93173377 41.37456268 115.85470486 41.37587261 C114.32785313 41.38010235 114.32785313 41.38010235 112.77015591 41.38441753 C111.65421551 41.3823933 110.53827511 41.38036907 109.38851833 41.3782835 C108.21271709 41.38003582 107.03691586 41.38178814 105.82548428 41.38359356 C102.60034288 41.38724386 99.37524245 41.38638364 96.15010166 41.38321447 C92.77624455 41.38068421 89.4023902 41.38303028 86.02853298 41.38460064 C80.36255304 41.38642038 74.69658614 41.38402113 69.03060818 41.37926006 C62.47828518 41.37381782 55.9259933 41.37558061 49.37367105 41.38108647 C43.74982833 41.38562315 38.12599498 41.38626542 32.50215101 41.3836478 C29.14246549 41.38208809 25.78279459 41.38188291 22.42311001 41.38518429 C18.67848493 41.38771502 14.93392016 41.38386418 11.18929958 41.3782835 C10.07335918 41.38030773 8.95741879 41.38233196 7.80766201 41.38441753 C6.78976086 41.38159771 5.7718597 41.37877789 4.72311306 41.37587261 C3.83747929 41.37549559 2.95184551 41.37511856 2.03937435 41.37473011 C-0.21109104 41.24888897 -0.21109104 41.24888897 -3.21109104 40.24888897 C-4.78776251 37.09554603 -4.37406145 33.71126656 -4.37905979 30.24888897 C-4.38238819 29.45740459 -4.38571659 28.66592022 -4.38914585 27.85045147 C-4.39421145 26.17597822 -4.39655429 24.50149487 -4.39639378 22.82701397 C-4.39858231 20.25913761 -4.41674714 17.69168938 -4.43570042 15.12388897 C-4.43863395 13.49889044 -4.44061901 11.87388987 -4.44155979 10.24888897 C-4.44874531 9.47802959 -4.45593082 8.70717022 -4.46333408 7.91295147 C-4.43139282 0.49881474 -4.43139282 0.49881474 0 0 Z " fill="#FFFFFF" transform="translate(197.21109104156494,353.7511110305786)"/>
<path d="M0 0 C1.37602764 0.00081715 1.37602764 0.00081715 2.77985382 0.00165081 C3.83148209 -0.00254368 4.88311035 -0.00673817 5.96660614 -0.01105976 C7.12511581 -0.00544025 8.28362549 0.00017925 9.47724152 0.00596905 C11.3016552 0.00312153 11.3016552 0.00312153 13.16292572 0.00021648 C16.50383583 -0.00285963 19.8444999 0.00303241 23.18538094 0.01316953 C26.67715687 0.021939 30.16892849 0.02019279 33.6607132 0.01980877 C39.52519719 0.02074594 45.38962951 0.02943687 51.25409698 0.04307842 C58.03988493 0.0588045 64.82561626 0.06407655 71.61142111 0.06334287 C78.13185254 0.06273302 84.65226547 0.06783453 91.17269135 0.07613468 C93.95096226 0.07967041 96.72922664 0.08149835 99.50749969 0.08202839 C103.38415284 0.08321721 107.26075865 0.09292038 111.13739777 0.1036253 C112.29590744 0.10317211 113.45441711 0.10271893 114.64803314 0.10225201 C115.69966141 0.10651699 116.75128967 0.11078197 117.83478546 0.1151762 C118.75213722 0.11685205 119.66948898 0.11852789 120.61463928 0.12025452 C122.80731964 0.24888897 122.80731964 0.24888897 124.80731964 1.24888897 C124.83196814 6.64235885 124.85015495 12.03579622 124.86225128 17.42930889 C124.86729196 19.26557772 124.87412441 21.10184251 124.88275909 22.93809795 C124.89483636 25.57165298 124.90055045 28.20515513 124.90497589 30.83873272 C124.91013718 31.66477505 124.91529846 32.49081738 124.92061615 33.34189129 C124.92081169 35.31125264 124.86936116 37.2805051 124.80731964 39.24888897 C123.14371338 40.91249523 121.15960481 40.37494965 118.87238312 40.37587261 C117.80385605 40.37869244 116.73532898 40.38151226 115.6344223 40.38441753 C114.45204483 40.3823933 113.26966736 40.38036907 112.05146027 40.3782835 C110.81421707 40.38003582 109.57697388 40.38178814 108.30223846 40.38359356 C104.89942523 40.38725183 101.49667244 40.38637859 98.09386253 40.38321447 C94.5402175 40.38069056 90.98657512 40.3830285 87.43292999 40.38460064 C81.46413456 40.38642224 75.49535148 40.38401627 69.52655792 40.37926006 C62.61637396 40.37381746 55.70621949 40.37558012 48.79603624 40.38108647 C42.87332929 40.38561786 36.95063124 40.38626802 31.02792311 40.3836478 C27.48606603 40.38208517 23.94422284 40.38189088 20.40236664 40.38518429 C16.45595901 40.38859725 12.50958468 40.38387283 8.56317902 40.3782835 C6.78961281 40.38131985 6.78961281 40.38131985 4.98021698 40.38441753 C3.91168991 40.38159771 2.84316284 40.37877789 1.74225616 40.37587261 C0.8079351 40.37549559 -0.12638596 40.37511856 -1.08901978 40.37473011 C-3.19268036 40.24888897 -3.19268036 40.24888897 -4.19268036 39.24888897 C-4.3060901 36.53334505 -4.35686055 33.84418853 -4.36064911 31.12779522 C-4.36397751 30.31269985 -4.36730591 29.49760448 -4.37073517 28.65780926 C-4.37580778 26.93028104 -4.37814339 25.20274299 -4.37798309 23.47520733 C-4.38016828 20.82603652 -4.39831657 18.17728281 -4.41728973 15.52818584 C-4.4202238 13.85305707 -4.42220851 12.1779263 -4.42314911 10.50279522 C-4.43033463 9.70692501 -4.43752014 8.9110548 -4.4449234 8.09106731 C-4.41325491 0.50094418 -4.41325491 0.50094418 0 0 Z " fill="#FFFFFF" transform="translate(197.19268035888672,222.7511110305786)"/>
<path d="M0 0 C9.9609375 -0.1953125 9.9609375 -0.1953125 13 0 C13.66 0.66 14.32 1.32 15 2 C15.66 1.34 16.32 0.68 17 0 C23.06410256 -0.55128205 23.06410256 -0.55128205 25.7109375 1.0078125 C27.76224807 4.17801974 27.31157309 7.54484139 27.1875 11.1875 C27.16719727 12.31188477 27.16719727 12.31188477 27.14648438 13.45898438 C27.11118539 15.30629767 27.05737917 17.15324066 27 19 C25.68 19 24.36 19 23 19 C22.67 14.38 22.34 9.76 22 5 C20.68 4.67 19.36 4.34 18 4 C16.05909174 5.94090826 16.60080565 9.47293902 16.4375 12.0625 C16.35371094 13.35285156 16.26992188 14.64320313 16.18359375 15.97265625 C16.09271484 17.47119141 16.09271484 17.47119141 16 19 C14.68 19 13.36 19 12 19 C11.93941406 18.16855469 11.87882813 17.33710938 11.81640625 16.48046875 C11.73261719 15.39378906 11.64882813 14.30710937 11.5625 13.1875 C11.48128906 12.10855469 11.40007813 11.02960938 11.31640625 9.91796875 C11.09787539 6.94010095 11.09787539 6.94010095 10 4 C8.02463255 4.34786708 8.02463255 4.34786708 6 5 C4.64908472 7.70183055 4.66141942 10.11808206 4.4375 13.125 C4.35371094 14.22070312 4.26992188 15.31640625 4.18359375 16.4453125 C4.12300781 17.28835938 4.06242188 18.13140625 4 19 C2.68 19 1.36 19 0 19 C0 12.73 0 6.46 0 0 Z " fill="#FFFFFF" transform="translate(594,312)"/>
<path d="M0 0 C3.42419723 1.8547735 4.61499519 3.24749059 6.375 6.6875 C7.43486026 12.30475937 7.21341586 17.59070787 4.0625 22.5 C1.87464868 25.151941 1.14313547 25.87658183 -2.20703125 26.23828125 C-9.22118281 26.43808467 -9.22118281 26.43808467 -13 24.3125 C-16.62184754 20.12473878 -17.41135413 16.55534587 -17.25390625 10.9921875 C-16.74520095 7.00080743 -15.15066956 4.04833235 -12.19921875 1.359375 C-8.35715928 -1.01546815 -4.36361997 -0.62943627 0 0 Z M-10.3125 5.0625 C-12.3312179 8.57656449 -12.92888363 10.94636697 -13 15 C-11.68446467 18.3201606 -10.5194066 20.4805934 -8 23 C-5.0850745 23.5838196 -5.0850745 23.5838196 -2 23 C0.96212071 20.35810855 1.89387146 18.38913798 2.9375 14.5625 C3.00947972 10.45965586 2.16295247 8.44470208 0 5 C-1.87668319 2.72819646 -1.87668319 2.72819646 -4.875 2.5625 C-8.11896563 2.72154794 -8.11896563 2.72154794 -10.3125 5.0625 Z " fill="#FFFFFF" transform="translate(515,305)"/>
<path d="M0 0 C2.475 0.495 2.475 0.495 5 1 C5.33 0.67 5.66 0.34 6 0 C12.96238651 -0.57068742 12.96238651 -0.57068742 16.5 1.375 C18.85207788 5.49113629 18.71647182 9.38024942 18 14 C16.5 17.125 16.5 17.125 14 19 C10.51182363 19.57906485 7.22562656 19.61281328 4 18 C4 20.64 4 23.28 4 26 C2.68 26 1.36 26 0 26 C0 17.42 0 8.84 0 0 Z M5.1875 4.5625 C3.50113416 8.02398778 4.11494329 10.32361059 5 14 C5.66 14.66 6.32 15.32 7 16 C10.06991681 15.83557723 10.06991681 15.83557723 13 15 C14.52491998 11.95016004 14.23562548 9.3576631 14 6 C12.89350331 3.97521537 12.89350331 3.97521537 11 3 C7.10610269 2.56470692 7.10610269 2.56470692 5.1875 4.5625 Z " fill="#FFFFFF" transform="translate(625,312)"/>
<path d="M0 0 C2.78536336 2.33611121 2.97227503 3.75047523 3.375 7.375 C2.95818542 11.40420765 2.41214015 13.73193916 0 17 C-3.4375 18.125 -3.4375 18.125 -7 18 C-9.375 16.5625 -9.375 16.5625 -11 14 C-12.14720336 9.2582261 -12.42976363 7.12557141 -10.6875 2.5625 C-7.67682976 -2.00925851 -5.05607509 -1.15313993 0 0 Z " fill="#BEC0C2" transform="translate(637,364)"/>
<path d="M0 0 C10 0 10 0 14 3 C14.52979878 6.5572204 14.43204232 8.31593299 12.5 11.375 C12.005 11.91125 11.51 12.4475 11 13 C11.474375 13.721875 11.94875 14.44375 12.4375 15.1875 C13.94152903 17.89475226 14.56599182 19.96194275 15 23 C13.08984375 22.75 13.08984375 22.75 11 22 C10.12890625 20.1875 10.12890625 20.1875 9.5625 18 C8.92113612 15.84024857 8.92113612 15.84024857 8 14 C5.42919865 12.86559222 5.42919865 12.86559222 3 13 C3 16.3 3 19.6 3 23 C2.01 23 1.02 23 0 23 C0 15.41 0 7.82 0 0 Z " fill="#FCFCFC" transform="translate(646,361)"/>
<path d="M0 0 C1.09570312 0.00902344 2.19140625 0.01804687 3.3203125 0.02734375 C4.16335938 0.03894531 5.00640625 0.05054688 5.875 0.0625 C5.875 1.3825 5.875 2.7025 5.875 4.0625 C5.27171875 4.05089844 4.6684375 4.03929687 4.046875 4.02734375 C3.24765625 4.01832031 2.4484375 4.00929688 1.625 4 C0.83609375 3.98839844 0.0471875 3.97679687 -0.765625 3.96484375 C-3.03191002 4.05864694 -4.9538895 4.43008937 -7.125 5.0625 C-8.84670916 11.51253844 -8.84670916 11.51253844 -8.5 18.0625 C-6.87031839 20.43294598 -5.77641836 21.00380645 -3.125 22.0625 C-0.76277768 22.30229762 -0.76277768 22.30229762 1.625 22.1875 C2.82382812 22.16042969 2.82382812 22.16042969 4.046875 22.1328125 C4.65015625 22.10960937 5.2534375 22.08640625 5.875 22.0625 C5.545 23.3825 5.215 24.7025 4.875 26.0625 C-4.82935336 26.52137485 -4.82935336 26.52137485 -9.125 25 C-12.51019931 21.72058817 -13.98406408 18.44597504 -14.2578125 13.81640625 C-13.92589687 8.02740713 -12.24583353 5.08282539 -8.125 1.0625 C-5.36047967 -0.31976016 -3.0788637 -0.03275387 0 0 Z " fill="#FFFFFF" transform="translate(567.125,304.9375)"/>
<path d="M0 0 C0.78246094 -0.02578125 1.56492187 -0.0515625 2.37109375 -0.078125 C4.5625 0.25 4.5625 0.25 6.3046875 1.25390625 C8.29445957 4.41158802 8.13907426 7.80864375 8.25 11.4375 C8.30124023 12.56188477 8.30124023 12.56188477 8.35351562 13.70898438 C8.43584294 15.55546838 8.50085281 17.40270994 8.5625 19.25 C7.758125 19.064375 6.95375 18.87875 6.125 18.6875 C5.279375 18.543125 4.43375 18.39875 3.5625 18.25 C3.2325 18.58 2.9025 18.91 2.5625 19.25 C-3.17361111 19.52314815 -3.17361111 19.52314815 -5.4375 19.25 C-7.4375 17.25 -7.4375 17.25 -7.8125 14.3125 C-7.4375 11.25 -7.4375 11.25 -5.875 9.4375 C-2.75954108 7.91971232 0.13205958 7.57985004 3.5625 7.25 C2.9025 6.26 2.2425 5.27 1.5625 4.25 C-0.41497122 3.88702064 -0.41497122 3.88702064 -2.5625 4.0625 C-3.84125 4.124375 -5.12 4.18625 -6.4375 4.25 C-6.4375 3.26 -6.4375 2.27 -6.4375 1.25 C-4.11063547 0.08656773 -2.59028587 0.05104012 0 0 Z M-3.4375 12.25 C-3.1075 13.57 -2.7775 14.89 -2.4375 16.25 C-0.7875 15.92 0.8625 15.59 2.5625 15.25 C2.8925 13.6 3.2225 11.95 3.5625 10.25 C0.9159665 10.25 -1.0183163 11.23139634 -3.4375 12.25 Z " fill="#FFFFFF" transform="translate(582.4375,311.75)"/>
<path d="M0 0 C1.32 0 2.64 0 4 0 C6.64 7.26 9.28 14.52 12 22 C10.68 22.33 9.36 22.66 8 23 C7.67 20.69 7.34 18.38 7 16 C4.03 16 1.06 16 -2 16 C-2.66 18.31 -3.32 20.62 -4 23 C-4.99 23 -5.98 23 -7 23 C-4.97810834 15.21878058 -2.61369593 7.60227292 0 0 Z " fill="#F9F9F9" transform="translate(587,361)"/>
<path d="M0 0 C2.475 0.495 2.475 0.495 5 1 C5.33 0.67 5.66 0.34 6 0 C12.33014354 -0.46889952 12.33014354 -0.46889952 14.875 1.3125 C17.33214023 4.99821034 17.10496904 8.39812656 17.0625 12.6875 C17.05347656 13.86699219 17.04445313 15.04648437 17.03515625 16.26171875 C17.02355469 17.16535156 17.01195312 18.06898438 17 19 C15.68 19 14.36 19 13 19 C12.95101562 18.16855469 12.90203125 17.33710938 12.8515625 16.48046875 C12.77679687 15.39378906 12.70203125 14.30710937 12.625 13.1875 C12.55539062 12.10855469 12.48578125 11.02960938 12.4140625 9.91796875 C12.18804267 6.81373814 12.18804267 6.81373814 10 4 C8.02463255 4.34786708 8.02463255 4.34786708 6 5 C4.64908472 7.70183055 4.66141942 10.11808206 4.4375 13.125 C4.35371094 14.22070312 4.26992188 15.31640625 4.18359375 16.4453125 C4.12300781 17.28835938 4.06242188 18.13140625 4 19 C2.68 19 1.36 19 0 19 C0 12.73 0 6.46 0 0 Z " fill="#FFFFFF" transform="translate(525,312)"/>
<path d="M0 0 C1.32 0 2.64 0 4 0 C4.33 4.95 4.66 9.9 5 15 C6.98 14.67 8.96 14.34 11 14 C11.33 9.38 11.66 4.76 12 0 C13.32 0 14.64 0 16 0 C16.33 6.27 16.66 12.54 17 19 C15.35 18.67 13.7 18.34 12 18 C11.67 18.33 11.34 18.66 11 19 C5.26388889 19.27314815 5.26388889 19.27314815 3 19 C0.05710046 16.05710046 0.02672897 13.88526342 -0.09765625 9.765625 C-0.08605469 8.60546875 -0.07445312 7.4453125 -0.0625 6.25 C-0.05347656 5.07953125 -0.04445313 3.9090625 -0.03515625 2.703125 C-0.02355469 1.81109375 -0.01195312 0.9190625 0 0 Z " fill="#FFFFFF" transform="translate(647,312)"/>
<path d="M0 0 C3.17443754 2.56656652 5.69156276 4.79687686 6.2734375 8.953125 C6.46329043 13.24672199 6.4342668 16.09582964 3.625 19.5 C0.06694074 22.88862786 -2.00630298 23.40051088 -6.9609375 23.35546875 C-10.41344041 22.75359564 -11.94190152 20.68176469 -14 18 C-15.24300105 14.27099684 -15.6711674 10.86650786 -15 7 C-11.48001697 0.87943249 -6.9613483 -1.2269043 0 0 Z M-11 6 C-12.10590914 10.57109112 -12.30993238 12.93460744 -11 17.4375 C-9.14399717 20.30670044 -9.14399717 20.30670044 -5.5625 21.125 C-1.98691413 21.3351872 -1.98691413 21.3351872 0.375 19.25 C3.24674517 15.27373746 3.49690096 11.80337599 3 7 C0.68802361 3.89534599 -0.74283172 2.27596377 -4.5625 1.4375 C-7.92752988 2.21404536 -9.0142318 3.16318828 -11 6 Z " fill="#F8F8F8" transform="translate(637,361)"/>
<path d="M0 0 C0.99 0 1.98 0 3 0 C3 3.3 3 6.6 3 10 C6.63 10 10.26 10 14 10 C14 6.7 14 3.4 14 0 C14.99 0 15.98 0 17 0 C17 7.59 17 15.18 17 23 C16.01 23 15.02 23 14 23 C14 19.37 14 15.74 14 12 C10.37 12 6.74 12 3 12 C3 15.63 3 19.26 3 23 C2.01 23 1.02 23 0 23 C0 15.41 0 7.82 0 0 Z " fill="#FFFFFF" transform="translate(601,361)"/>
<path d="M0 0 C0.99 0 1.98 0 3 0 C3.04898437 1.27617187 3.09796875 2.55234375 3.1484375 3.8671875 C3.22346191 5.53648072 3.29900988 7.20575046 3.375 8.875 C3.4059375 9.71675781 3.436875 10.55851562 3.46875 11.42578125 C3.50742187 12.23144531 3.54609375 13.03710938 3.5859375 13.8671875 C3.6173584 14.61081543 3.6487793 15.35444336 3.68115234 16.12060547 C3.85419551 18.24010974 3.85419551 18.24010974 6 20 C8.5 20.33333333 8.5 20.33333333 11 20 C13.35358251 17.64641749 13.27871904 17.07031606 13.4140625 13.8671875 C13.45273437 13.06152344 13.49140625 12.25585938 13.53125 11.42578125 C13.57765625 10.16314453 13.57765625 10.16314453 13.625 8.875 C13.68300781 7.60076172 13.68300781 7.60076172 13.7421875 6.30078125 C13.83656494 4.20088316 13.91937586 2.10047109 14 0 C14.99 0 15.98 0 17 0 C17.08103404 2.91722548 17.14051081 5.83219516 17.1875 8.75 C17.21263672 9.575 17.23777344 10.4 17.26367188 11.25 C17.33722909 17.33072996 17.33722909 17.33072996 15.73046875 20.51953125 C12.8862167 22.95287555 9.60928144 23.19699782 6 23 C3.00204165 21.66048669 1.47220125 20.9444025 0 18 C-0.08308638 16.62451844 -0.10736016 15.24514204 -0.09765625 13.8671875 C-0.09443359 13.06152344 -0.09121094 12.25585938 -0.08789062 11.42578125 C-0.07951172 10.58402344 -0.07113281 9.74226563 -0.0625 8.875 C-0.05798828 8.02550781 -0.05347656 7.17601562 -0.04882812 6.30078125 C-0.03702874 4.20049091 -0.01909306 2.1002367 0 0 Z " fill="#FCFCFC" transform="translate(503,361)"/>
<path d="M0 0 C2.01822917 0.06510417 4.03645833 0.13020833 6.0546875 0.1953125 C6.0546875 1.5153125 6.0546875 2.8353125 6.0546875 4.1953125 C3.0846875 3.7003125 3.0846875 3.7003125 0.0546875 3.1953125 C1.16226372 6.11528617 1.83282335 7.07085212 4.6171875 8.6328125 C7.0546875 10.1953125 7.0546875 10.1953125 8.0546875 12.6328125 C8.0546875 15.1953125 8.0546875 15.1953125 7.1796875 17.5078125 C3.80904526 20.18449899 0.20156903 19.50828469 -3.9453125 19.1953125 C-3.9453125 17.8753125 -3.9453125 16.5553125 -3.9453125 15.1953125 C-1.6353125 15.5253125 0.6746875 15.8553125 3.0546875 16.1953125 C3.00700347 14.31650378 3.00700347 14.31650378 2.0546875 12.1953125 C1.0440625 11.5765625 0.0334375 10.9578125 -1.0078125 10.3203125 C-1.9771875 9.6190625 -2.9465625 8.9178125 -3.9453125 8.1953125 C-4.4453125 5.0703125 -4.4453125 5.0703125 -3.9453125 2.1953125 C-1.9453125 0.1953125 -1.9453125 0.1953125 0 0 Z " fill="#FFFFFF" transform="translate(671.9453125,311.8046875)"/>
<path d="M0 0 C3.96 0 7.92 0 12 0 C12 0.66 12 1.32 12 2 C9.03 2 6.06 2 3 2 C3 4.64 3 7.28 3 10 C5.97 10 8.94 10 12 10 C12 10.66 12 11.32 12 12 C9.03 12 6.06 12 3 12 C3 14.97 3 17.94 3 21 C6.3 21 9.6 21 13 21 C13 21.66 13 22.32 13 23 C8.71 23 4.42 23 0 23 C0 15.41 0 7.82 0 0 Z " fill="#FEFEFE" transform="translate(664,361)"/>
<path d="M0 0 C3.96 0 7.92 0 12 0 C12 0.66 12 1.32 12 2 C9.03 2 6.06 2 3 2 C3 4.64 3 7.28 3 10 C5.97 10 8.94 10 12 10 C12 10.66 12 11.32 12 12 C9.03 12 6.06 12 3 12 C3 14.97 3 17.94 3 21 C6.3 21 9.6 21 13 21 C13 21.66 13 22.32 13 23 C8.71 23 4.42 23 0 23 C0 15.41 0 7.82 0 0 Z " fill="#FEFEFE" transform="translate(524,361)"/>
<path d="M0 0 C5.61 0 11.22 0 17 0 C17 0.66 17 1.32 17 2 C14.69 2 12.38 2 10 2 C10 8.93 10 15.86 10 23 C9.01 23 8.02 23 7 23 C7 16.07 7 9.14 7 2 C4.69 2 2.38 2 0 2 C0 1.34 0 0.68 0 0 Z " fill="#FEFEFE" transform="translate(539,361)"/>
<path d="M0 0 C0.99 0 1.98 0 3 0 C3 6.93 3 13.86 3 21 C5.97 21 8.94 21 12 21 C12 21.66 12 22.32 12 23 C8.04 23 4.08 23 0 23 C0 15.41 0 7.82 0 0 Z " fill="#FFFFFF" transform="translate(565,361)"/>
<path d="M0 0 C6.875 0.875 6.875 0.875 8 2 C8.1875 4.4375 8.1875 4.4375 8 7 C6 9 6 9 2.875 9.125 C1.451875 9.063125 1.451875 9.063125 0 9 C0 6.03 0 3.06 0 0 Z " fill="#BFC1C3" transform="translate(649,363)"/>
<path d="M0 0 C2.56616632 3.84924948 2.55097676 6.4349304 3 11 C1.02 11 -0.96 11 -3 11 C-2.69078116 9.54096742 -2.37751201 8.08279278 -2.0625 6.625 C-1.88847656 5.81289063 -1.71445312 5.00078125 -1.53515625 4.1640625 C-1 2 -1 2 0 0 Z " fill="#C4C6C8" transform="translate(589,364)"/>
</svg>
