<?xml version="1.0" encoding="UTF-8"?>
<svg version="1.1" xmlns="http://www.w3.org/2000/svg" width="563" height="202">
<path d="M0 0 C39.27 0 78.54 0 119 0 C119 11.88 119 23.76 119 36 C105.14 36 91.28 36 77 36 C77 76.59 77 117.18 77 159 C65.12 159 53.24 159 41 159 C41 118.41 41 77.82 41 36 C27.47 36 13.94 36 0 36 C0 24.12 0 12.24 0 0 Z " fill="#54274E" transform="translate(228,22)"/>
<path d="M0 0 C59.07 0 118.14 0 179 0 C179 14.52 179 29.04 179 44 C119.93 44 60.86 44 0 44 C0 29.48 0 14.96 0 0 Z M10 12 C9.89173711 14.4178712 9.81260211 16.83087556 9.75 19.25 C9.71648437 19.93191406 9.68296875 20.61382812 9.6484375 21.31640625 C9.58147997 24.76471886 9.7512166 26.65528052 11.79296875 29.484375 C14.04322978 31.33611908 14.04322978 31.33611908 17.5625 31 C20.94131866 30.30071344 20.94131866 30.30071344 22.703125 28.390625 C24.49900587 25.0801458 24.29136548 22.48915737 24.1875 18.75 C24.16042969 17.48671875 24.13335937 16.2234375 24.10546875 14.921875 C24.05326172 13.47554687 24.05326172 13.47554687 24 12 C23.01 12 22.02 12 21 12 C20.93941406 12.91523438 20.87882812 13.83046875 20.81640625 14.7734375 C20.73261719 15.96195313 20.64882813 17.15046875 20.5625 18.375 C20.48128906 19.55835938 20.40007812 20.74171875 20.31640625 21.9609375 C20 25 20 25 19 27 C17.02 27 15.04 27 13 27 C13 22.05 13 17.1 13 12 C12.01 12 11.02 12 10 12 Z M29 12 C29 18.27 29 24.54 29 31 C32.3 31 35.6 31 39 31 C39 30.01 39 29.02 39 28 C36.69 28 34.38 28 32 28 C32 26.35 32 24.7 32 23 C34.31 23 36.62 23 39 23 C39 22.01 39 21.02 39 20 C36.69 20 34.38 20 32 20 C32 18.35 32 16.7 32 15 C34.31 15 36.62 15 39 15 C39 14.01 39 13.02 39 12 C35.7 12 32.4 12 29 12 Z M42 12 C42 12.99 42 13.98 42 15 C43.65 15 45.3 15 47 15 C47 20.28 47 25.56 47 31 C47.99 31 48.98 31 50 31 C50 25.72 50 20.44 50 15 C51.32 15 52.64 15 54 15 C54 14.01 54 13.02 54 12 C50.04 12 46.08 12 42 12 Z M66 12 C66 18.27 66 24.54 66 31 C68.97 31 71.94 31 75 31 C75 30.01 75 29.02 75 28 C73.35 28 71.7 28 70 28 C70 22.72 70 17.44 70 12 C68.68 12 67.36 12 66 12 Z M86 12 C84.82905995 14.7899439 83.66309073 17.58178597 82.5 20.375 C82.16613281 21.1690625 81.83226562 21.963125 81.48828125 22.78125 C81.01455078 23.92207031 81.01455078 23.92207031 80.53125 25.0859375 C80.23798828 25.7876709 79.94472656 26.4894043 79.64257812 27.21240234 C78.88724219 28.99708561 78.88724219 28.99708561 79 31 C79.99 31 80.98 31 82 31 C82.33 30.01 82.66 29.02 83 28 C87.455 27.505 87.455 27.505 92 27 C92.33 28.32 92.66 29.64 93 31 C93.99 30.67 94.98 30.34 96 30 C94.90912656 27.18166123 93.80325527 24.37097051 92.6875 21.5625 C92.37876953 20.76005859 92.07003906 19.95761719 91.75195312 19.13085938 C91.44580078 18.36708984 91.13964844 17.60332031 90.82421875 16.81640625 C90.54666748 16.10943604 90.26911621 15.40246582 89.9831543 14.67407227 C89.04006391 12.64785357 89.04006391 12.64785357 86 12 Z M100 12 C100 18.27 100 24.54 100 31 C100.99 31 101.98 31 103 31 C103 28.36 103 25.72 103 23 C105.64 23 108.28 23 111 23 C111 25.64 111 28.28 111 31 C112.32 31 113.64 31 115 31 C115 24.73 115 18.46 115 12 C113.68 12 112.36 12 111 12 C111 14.64 111 17.28 111 20 C108.36 20 105.72 20 103 20 C103 17.36 103 14.72 103 12 C102.01 12 101.02 12 100 12 Z M120 16 C118.44975536 19.10048928 118.71007985 21.57894218 119 25 C120.79562405 27.75329021 122.05254922 29.52627461 125 31 C129.15780044 31.56697279 130.72587185 31.17585579 134.3125 28.875 C137.29594255 25.68341029 138.09028144 24.3335089 138 20 C136.39436079 16.36618495 134.5079651 13.90432391 131 12 C125.91104609 11.24207069 123.6389218 12.46504739 120 16 Z M142 12 C142 18.27 142 24.54 142 31 C142.99 31 143.98 31 145 31 C145 28.36 145 25.72 145 23 C147.60608273 25.5162178 149.89381685 28.05134359 152 31 C152.99 30.67 153.98 30.34 155 30 C152.525 26.04 152.525 26.04 150 22 C150.99 21.67 151.98 21.34 153 21 C153.85974801 18.70705512 153.85974801 18.70705512 154 16 C152.6715404 13.50279176 152.6715404 13.50279176 150 12 C147.36 12 144.72 12 142 12 Z M160 12 C160 18.27 160 24.54 160 31 C163.3 31 166.6 31 170 31 C170 30.01 170 29.02 170 28 C167.69 28 165.38 28 163 28 C163 26.35 163 24.7 163 23 C165.31 23 167.62 23 170 23 C170 22.01 170 21.02 170 20 C167.69 20 165.38 20 163 20 C163 18.35 163 16.7 163 15 C165.31 15 167.62 15 170 15 C170 14.01 170 13.02 170 12 C166.7 12 163.4 12 160 12 Z " fill="#54274E" transform="translate(361,135)"/>
<path d="M0 0 C12.21 0 24.42 0 37 0 C37 52.47 37 104.94 37 159 C24.79 159 12.58 159 0 159 C0 106.53 0 54.06 0 0 Z " fill="#54274E" transform="translate(24,22)"/>
<path d="M0 0 C39.27 0 78.54 0 119 0 C119 12.21 119 24.42 119 37 C79.73 37 40.46 37 0 37 C0 24.79 0 12.58 0 0 Z " fill="#9E48B3" transform="translate(89,144)"/>
<path d="M0 0 C39.27 0 78.54 0 119 0 C119 12.21 119 24.42 119 37 C79.73 37 40.46 37 0 37 C0 24.79 0 12.58 0 0 Z " fill="#A546BA" transform="translate(89,83)"/>
<path d="M0 0 C39.27 0 78.54 0 119 0 C119 12.21 119 24.42 119 37 C79.73 37 40.46 37 0 37 C0 24.79 0 12.58 0 0 Z " fill="#54274E" transform="translate(89,22)"/>
<path d="M0 0 C2.68575202 2.13280307 4.00298046 3.7709346 4.4609375 7.2109375 C4.56647157 14.91492475 4.56647157 14.91492475 2.375 18.75 C-1.0329545 21.68462748 -2.77004511 22.58704956 -7.3125 23 C-11.98387978 22.59022984 -14.26272536 21.13298761 -17.6875 18.0625 C-19.55900019 14.31949961 -19.52095377 10.78327279 -18.875 6.6875 C-17.26785226 3.53060266 -15.90061766 1.49334244 -13.125 -0.6875 C-8.40647208 -1.9982022 -4.40018032 -2.00877797 0 0 Z M-10.625 4.125 C-12.99153947 6.82022551 -13.25005406 7.36396493 -13.375 10.75 C-13.12923613 14.48302676 -13.12923613 14.48302676 -11.8125 16.75 C-8.7334134 18.23988061 -6.12643042 17.36232518 -2.875 16.6875 C-1.33082994 12.62389457 -0.60205728 10.50632817 -2 6.3125 C-3.62579618 3.66756369 -3.62579618 3.66756369 -5.75 2.5625 C-8.07686813 2.55351673 -8.07686813 2.55351673 -10.625 4.125 Z " fill="#54274E" transform="translate(380.875,103.3125)"/>
<path d="M0 0 C4.12504298 -0.02686352 8.24991269 -0.04677254 12.375 -0.0625 C14.1384375 -0.07506836 14.1384375 -0.07506836 15.9375 -0.08789062 C17.61972656 -0.09272461 17.61972656 -0.09272461 19.3359375 -0.09765625 C20.89127197 -0.10551147 20.89127197 -0.10551147 22.47802734 -0.11352539 C25 0 25 0 27 1 C28.14077657 4.42232972 28.09815117 7.08673217 28.0625 10.6875 C28.05347656 11.86699219 28.04445313 13.04648438 28.03515625 14.26171875 C28.02355469 15.16535156 28.01195312 16.06898437 28 17 C26.02 17 24.04 17 22 17 C22.01160156 16.30132812 22.02320313 15.60265625 22.03515625 14.8828125 C22.04417969 13.97273438 22.05320312 13.06265625 22.0625 12.125 C22.07410156 11.22007813 22.08570313 10.31515625 22.09765625 9.3828125 C22.16249257 6.9831415 22.16249257 6.9831415 21 5 C20.01 5 19.02 5 18 5 C17.67 8.96 17.34 12.92 17 17 C15.02 17 13.04 17 11 17 C11.01160156 16.30132812 11.02320313 15.60265625 11.03515625 14.8828125 C11.04417969 13.97273438 11.05320312 13.06265625 11.0625 12.125 C11.07410156 11.22007813 11.08570313 10.31515625 11.09765625 9.3828125 C11.16249257 6.9831415 11.16249257 6.9831415 10 5 C9.01 5 8.02 5 7 5 C6.67 8.96 6.34 12.92 6 17 C4.02 17 2.04 17 0 17 C0 11.39 0 5.78 0 0 Z " fill="#54274E" transform="translate(454,108)"/>
<path d="M0 0 C1.24394531 -0.04898438 2.48789062 -0.09796875 3.76953125 -0.1484375 C7.1875 0.375 7.1875 0.375 9.60546875 2.6796875 C11.68601501 6.22432186 11.76620318 8.32407773 11.1875 12.375 C9.39187595 15.12829021 8.13495078 16.90127461 5.1875 18.375 C3.18789988 18.414992 1.18702758 18.41846799 -0.8125 18.375 C-0.8125 20.685 -0.8125 22.995 -0.8125 25.375 C-2.7925 25.375 -4.7725 25.375 -6.8125 25.375 C-7.00835353 21.39619772 -7.1927867 17.41694844 -7.375 13.4375 C-7.43107422 12.30119141 -7.48714844 11.16488281 -7.54492188 9.99414062 C-7.59326172 8.91455078 -7.64160156 7.83496094 -7.69140625 6.72265625 C-7.7385376 5.72242432 -7.78566895 4.72219238 -7.83422852 3.69165039 C-7.78903861 -1.12640641 -4.01370424 0.10747303 0 0 Z M-0.8125 4.375 C-0.8125 7.345 -0.8125 10.315 -0.8125 13.375 C0.5075 13.705 1.8275 14.035 3.1875 14.375 C5.50313087 12.48999729 5.50313087 12.48999729 5.4375 9.375 C5.50313087 6.26000271 5.50313087 6.26000271 3.1875 4.375 C1.8675 4.375 0.5475 4.375 -0.8125 4.375 Z " fill="#54274E" transform="translate(491.8125,107.625)"/>
<path d="M0 0 C1.21236328 0.01353516 1.21236328 0.01353516 2.44921875 0.02734375 C3.37154297 0.04474609 3.37154297 0.04474609 4.3125 0.0625 C4.3125 1.7125 4.3125 3.3625 4.3125 5.0625 C3.68601562 5.08828125 3.05953125 5.1140625 2.4140625 5.140625 C1.59679687 5.19734375 0.77953125 5.2540625 -0.0625 5.3125 C-0.87460937 5.35890625 -1.68671875 5.4053125 -2.5234375 5.453125 C-4.83504658 5.85852319 -4.83504658 5.85852319 -5.9921875 7.9140625 C-6.96520421 10.92057481 -6.47621283 13.03910081 -5.6875 16.0625 C-3.28986815 18.46013185 -2.35476502 18.40530586 0.9375 18.6875 C1.75476563 18.76226562 2.57203125 18.83703125 3.4140625 18.9140625 C4.04054688 18.96304688 4.66703125 19.01203125 5.3125 19.0625 C4.9825 20.7125 4.6525 22.3625 4.3125 24.0625 C-5.35416667 24.63112745 -5.35416667 24.63112745 -9.6875 21.0625 C-13.05444443 17.26852847 -13.25185212 14.48046753 -13.11328125 9.54296875 C-12.41617414 5.48184018 -10.71339869 3.80691974 -7.6875 1.0625 C-4.80538698 0.10179566 -2.98899956 -0.04331883 0 0 Z " fill="#54274E" transform="translate(428.6875,101.9375)"/>
<path d="M0 0 C1.77049689 -0.05410687 3.54146849 -0.09284119 5.3125 -0.125 C6.29863281 -0.14820312 7.28476562 -0.17140625 8.30078125 -0.1953125 C11 0 11 0 14 2 C14.38411275 4.609621 14.60293197 7.0058074 14.6875 9.625 C14.73874023 10.68460938 14.73874023 10.68460938 14.79101562 11.765625 C14.87351308 13.50985688 14.93843335 15.25490395 15 17 C3.13572467 18.75714978 3.13572467 18.75714978 -1 16 C-1.4375 13.0625 -1.4375 13.0625 -1 10 C0.625 8.125 0.625 8.125 3 7 C6.25 6.8125 6.25 6.8125 9 7 C8.67 6.34 8.34 5.68 8 5 C5.03 5 2.06 5 -1 5 C-0.67 3.35 -0.34 1.7 0 0 Z M5 10 C4.67 11.32 4.34 12.64 4 14 C5.65 13.67 7.3 13.34 9 13 C9 12.01 9 11.02 9 10 C7.68 10 6.36 10 5 10 Z " fill="#54274E" transform="translate(437,108)"/>
<path d="M0 0 C1.32 0 2.64 0 4 0 C4.06058594 0.77085938 4.12117188 1.54171875 4.18359375 2.3359375 C4.26738281 3.33882813 4.35117187 4.34171875 4.4375 5.375 C4.51871094 6.37273437 4.59992188 7.37046875 4.68359375 8.3984375 C4.84965626 10.97927613 4.84965626 10.97927613 6 13 C7.32 13 8.64 13 10 13 C9.98839844 12.14535156 9.97679687 11.29070312 9.96484375 10.41015625 C9.95582031 9.30542969 9.94679688 8.20070313 9.9375 7.0625 C9.92589844 5.96035156 9.91429687 4.85820313 9.90234375 3.72265625 C10 1 10 1 11 0 C12.65 0 14.3 0 16 0 C16 5.61 16 11.22 16 17 C5.10843373 18.36144578 5.10843373 18.36144578 2 18 C-0.46048765 15.61513017 -0.97541275 14.23972567 -1.328125 10.80078125 C-1.30234375 9.64964844 -1.2765625 8.49851562 -1.25 7.3125 C-1.23453125 6.15363281 -1.2190625 4.99476562 -1.203125 3.80078125 C-1 1 -1 1 0 0 Z " fill="#54274E" transform="translate(506,108)"/>
<path d="M0 0 C2.248125 -0.04125 4.49625 -0.0825 6.8125 -0.125 C8.07707031 -0.14820312 9.34164063 -0.17140625 10.64453125 -0.1953125 C14 0 14 0 17 2 C17.22137393 4.62697064 17.28162025 7.00893964 17.1875 9.625 C17.16719727 10.68460938 17.16719727 10.68460938 17.14648438 11.765625 C17.1111104 13.51074128 17.05730221 15.25546608 17 17 C15.35 17 13.7 17 12 17 C12 13.04 12 9.08 12 5 C9.69 5 7.38 5 5 5 C5 8.96 5 12.92 5 17 C3.35 17 1.7 17 0 17 C0 11.39 0 5.78 0 0 Z " fill="#54274E" transform="translate(388,108)"/>
<path d="M0 0 C1.21236328 0.02707031 1.21236328 0.02707031 2.44921875 0.0546875 C3.37154297 0.08949219 3.37154297 0.08949219 4.3125 0.125 C4.3125 1.775 4.3125 3.425 4.3125 5.125 C2.0025 4.795 -0.3075 4.465 -2.6875 4.125 C-2.6875 4.785 -2.6875 5.445 -2.6875 6.125 C-1.264375 6.558125 -1.264375 6.558125 0.1875 7 C3.3125 8.125 3.3125 8.125 5.3125 10.125 C5.6875 12.5625 5.6875 12.5625 5.3125 15.125 C3.875 16.9375 3.875 16.9375 1.3125 18.125 C-1.70521016 18.3639237 -4.66756841 18.29922682 -7.6875 18.125 C-8.0175 16.805 -8.3475 15.485 -8.6875 14.125 C-5.75925348 13.14891783 -3.73136724 13.04273332 -0.6875 13.125 C-2.38529622 11.99313585 -4.10335237 10.88737007 -5.875 9.875 C-7.6875 8.125 -7.6875 8.125 -8.125 5.0625 C-7.980625 4.093125 -7.83625 3.12375 -7.6875 2.125 C-4.48369983 -0.01086678 -3.66810033 -0.10632175 0 0 Z " fill="#54274E" transform="translate(532.6875,107.875)"/>
<path d="M0 0 C3.0625 0.3125 3.0625 0.3125 4.9375 1.375 C6.70523274 4.4194286 6.43073916 6.8756012 6.0625 10.3125 C4.9375 12.25 4.9375 12.25 3.0625 13.3125 C0.0625 13.75 0.0625 13.75 -2.9375 13.3125 C-4.875 11.75 -4.875 11.75 -5.9375 9.3125 C-5.48600609 0.58361767 -5.48600609 0.58361767 0 0 Z " fill="#54274E" transform="translate(488.9375,149.6875)"/>
<path d="M0 0 C0.66 0 1.32 0 2 0 C2.66 1.98 3.32 3.96 4 6 C2.02 6 0.04 6 -2 6 C-1.34 4.02 -0.68 2.04 0 0 Z " fill="#54274E" transform="translate(447,153)"/>
<path d="M0 0 C2.475 0.495 2.475 0.495 5 1 C4.67 2.32 4.34 3.64 4 5 C2.68 5 1.36 5 0 5 C0 3.35 0 1.7 0 0 Z " fill="#54274E" transform="translate(507,150)"/>
</svg>
